<svg width="16" height="16" viewBox="0 0 16 16" fill="none" xmlns="http://www.w3.org/2000/svg">
<g clip-path="url(#clip0_3_86)">
<path d="M6.00004 14.6667C6.36823 14.6667 6.66671 14.3682 6.66671 14C6.66671 13.6319 6.36823 13.3334 6.00004 13.3334C5.63185 13.3334 5.33337 13.6319 5.33337 14C5.33337 14.3682 5.63185 14.6667 6.00004 14.6667Z" stroke="#262626" stroke-width="2" stroke-linecap="round" stroke-linejoin="round"/>
<path d="M13.3333 14.6667C13.7015 14.6667 14 14.3682 14 14C14 13.6319 13.7015 13.3334 13.3333 13.3334C12.9651 13.3334 12.6666 13.6319 12.6666 14C12.6666 14.3682 12.9651 14.6667 13.3333 14.6667Z" stroke="#262626" stroke-width="2" stroke-linecap="round" stroke-linejoin="round"/>
<path d="M0.666626 0.666626H3.33329L5.11996 9.59329C5.18092 9.90022 5.3479 10.1759 5.59166 10.3722C5.83541 10.5684 6.14042 10.6726 6.45329 10.6666H12.9333C13.2462 10.6726 13.5512 10.5684 13.7949 10.3722C14.0387 10.1759 14.2057 9.90022 14.2666 9.59329L15.3333 3.99996H3.99996" stroke="#262626" stroke-width="2" stroke-linecap="round" stroke-linejoin="round"/>
</g>
<defs>
<clipPath id="clip0_3_86">
<rect width="16" height="16" fill="white"/>
</clipPath>
</defs>
</svg>
